<mxfile host="app.diagrams.net" modified="2024-04-14T13:14:31.335Z" agent="Mozilla/5.0 (Windows NT 10.0; Win64; x64; rv:124.0) Gecko/20100101 Firefox/124.0" etag="2QE0ibG_sjAfTiqj7yPe" version="24.2.5" type="device">
  <diagram name="Page-1" id="8bQgau8Kps6d5lWdENJX">
    <mxGraphModel dx="794" dy="347" grid="1" gridSize="10" guides="1" tooltips="1" connect="1" arrows="1" fold="1" page="1" pageScale="1" pageWidth="850" pageHeight="1100" math="0" shadow="0">
      <root>
        <mxCell id="0" />
        <mxCell id="1" parent="0" />
        <mxCell id="btoclys5r_zD7IFOaIW8-2" value="Employee" style="rounded=0;whiteSpace=wrap;html=1;" parent="1" vertex="1">
          <mxGeometry x="120" y="100" width="120" height="60" as="geometry" />
        </mxCell>
        <mxCell id="btoclys5r_zD7IFOaIW8-3" value="Customer" style="rounded=0;whiteSpace=wrap;html=1;" parent="1" vertex="1">
          <mxGeometry x="383" y="280" width="120" height="60" as="geometry" />
        </mxCell>
        <mxCell id="btoclys5r_zD7IFOaIW8-5" value="salary" style="ellipse;whiteSpace=wrap;html=1;aspect=fixed;" parent="1" vertex="1">
          <mxGeometry x="100" y="10" width="60" height="60" as="geometry" />
        </mxCell>
        <mxCell id="btoclys5r_zD7IFOaIW8-8" value="&lt;div&gt;contact_&lt;/div&gt;&lt;div&gt;number&lt;/div&gt;" style="ellipse;whiteSpace=wrap;html=1;aspect=fixed;" parent="1" vertex="1">
          <mxGeometry x="170" y="10" width="60" height="60" as="geometry" />
        </mxCell>
        <mxCell id="btoclys5r_zD7IFOaIW8-10" value="&lt;div&gt;&lt;u&gt;employee_&lt;/u&gt;&lt;/div&gt;&lt;div&gt;&lt;u&gt;id&lt;i&gt;&lt;br&gt;&lt;/i&gt;&lt;/u&gt;&lt;/div&gt;" style="ellipse;whiteSpace=wrap;html=1;aspect=fixed;" parent="1" vertex="1">
          <mxGeometry x="30" y="20" width="60" height="60" as="geometry" />
        </mxCell>
        <mxCell id="btoclys5r_zD7IFOaIW8-17" value="&lt;div&gt;&lt;u&gt;customer_&lt;/u&gt;&lt;/div&gt;&lt;div&gt;&lt;u&gt;id&lt;/u&gt;&lt;/div&gt;" style="ellipse;whiteSpace=wrap;html=1;" parent="1" vertex="1">
          <mxGeometry x="452.83" y="190" width="60" height="60" as="geometry" />
        </mxCell>
        <mxCell id="btoclys5r_zD7IFOaIW8-20" value="position" style="ellipse;whiteSpace=wrap;html=1;aspect=fixed;" parent="1" vertex="1">
          <mxGeometry x="10" y="90" width="60" height="60" as="geometry" />
        </mxCell>
        <mxCell id="btoclys5r_zD7IFOaIW8-37" value="" style="endArrow=none;html=1;rounded=0;entryX=1;entryY=0.5;entryDx=0;entryDy=0;exitX=0;exitY=0.5;exitDx=0;exitDy=0;" parent="1" source="btoclys5r_zD7IFOaIW8-2" target="btoclys5r_zD7IFOaIW8-20" edge="1">
          <mxGeometry width="50" height="50" relative="1" as="geometry">
            <mxPoint x="240" y="230" as="sourcePoint" />
            <mxPoint x="290" y="180" as="targetPoint" />
          </mxGeometry>
        </mxCell>
        <mxCell id="btoclys5r_zD7IFOaIW8-38" value="" style="endArrow=none;html=1;rounded=0;entryX=0.5;entryY=1;entryDx=0;entryDy=0;exitX=0.75;exitY=0;exitDx=0;exitDy=0;" parent="1" source="btoclys5r_zD7IFOaIW8-2" target="btoclys5r_zD7IFOaIW8-8" edge="1">
          <mxGeometry width="50" height="50" relative="1" as="geometry">
            <mxPoint x="240" y="230" as="sourcePoint" />
            <mxPoint x="290" y="180" as="targetPoint" />
          </mxGeometry>
        </mxCell>
        <mxCell id="btoclys5r_zD7IFOaIW8-39" value="" style="endArrow=none;html=1;rounded=0;entryX=0.5;entryY=1;entryDx=0;entryDy=0;exitX=0.25;exitY=0;exitDx=0;exitDy=0;" parent="1" source="btoclys5r_zD7IFOaIW8-2" target="btoclys5r_zD7IFOaIW8-5" edge="1">
          <mxGeometry width="50" height="50" relative="1" as="geometry">
            <mxPoint x="240" y="230" as="sourcePoint" />
            <mxPoint x="290" y="180" as="targetPoint" />
          </mxGeometry>
        </mxCell>
        <mxCell id="btoclys5r_zD7IFOaIW8-40" value="" style="endArrow=none;html=1;rounded=0;entryX=1;entryY=1;entryDx=0;entryDy=0;exitX=0;exitY=0;exitDx=0;exitDy=0;" parent="1" source="btoclys5r_zD7IFOaIW8-2" target="btoclys5r_zD7IFOaIW8-10" edge="1">
          <mxGeometry width="50" height="50" relative="1" as="geometry">
            <mxPoint x="160" y="110" as="sourcePoint" />
            <mxPoint x="161" y="91" as="targetPoint" />
          </mxGeometry>
        </mxCell>
        <mxCell id="btoclys5r_zD7IFOaIW8-52" value="&lt;div&gt;Orders&lt;/div&gt;" style="rounded=0;whiteSpace=wrap;html=1;" parent="1" vertex="1">
          <mxGeometry x="365" y="510" width="120" height="60" as="geometry" />
        </mxCell>
        <mxCell id="btoclys5r_zD7IFOaIW8-53" value="Address" style="rounded=0;whiteSpace=wrap;html=1;" parent="1" vertex="1">
          <mxGeometry x="630" y="400" width="120" height="60" as="geometry" />
        </mxCell>
        <mxCell id="btoclys5r_zD7IFOaIW8-54" value="&lt;div&gt;Products&lt;/div&gt;" style="rounded=0;whiteSpace=wrap;html=1;" parent="1" vertex="1">
          <mxGeometry x="620" y="730" width="120" height="60" as="geometry" />
        </mxCell>
        <mxCell id="btoclys5r_zD7IFOaIW8-56" value="&lt;div&gt;&lt;u&gt;product_&lt;/u&gt;&lt;/div&gt;&lt;div&gt;&lt;u&gt;id&lt;/u&gt;&lt;/div&gt;" style="ellipse;whiteSpace=wrap;html=1;" parent="1" vertex="1">
          <mxGeometry x="750" y="790" width="60" height="60" as="geometry" />
        </mxCell>
        <mxCell id="btoclys5r_zD7IFOaIW8-57" value="&lt;div&gt;product_&lt;/div&gt;&lt;div&gt;name&lt;/div&gt;" style="ellipse;whiteSpace=wrap;html=1;" parent="1" vertex="1">
          <mxGeometry x="680" y="810" width="60" height="60" as="geometry" />
        </mxCell>
        <mxCell id="btoclys5r_zD7IFOaIW8-58" value="type" style="ellipse;whiteSpace=wrap;html=1;" parent="1" vertex="1">
          <mxGeometry x="770" y="720" width="60" height="60" as="geometry" />
        </mxCell>
        <mxCell id="btoclys5r_zD7IFOaIW8-59" value="price" style="ellipse;whiteSpace=wrap;html=1;" parent="1" vertex="1">
          <mxGeometry x="610" y="810" width="60" height="60" as="geometry" />
        </mxCell>
        <mxCell id="btoclys5r_zD7IFOaIW8-60" value="description" style="ellipse;whiteSpace=wrap;html=1;" parent="1" vertex="1">
          <mxGeometry x="740" y="660" width="60" height="60" as="geometry" />
        </mxCell>
        <mxCell id="btoclys5r_zD7IFOaIW8-61" value="" style="endArrow=none;html=1;rounded=0;entryX=0;entryY=1;entryDx=0;entryDy=0;exitX=1;exitY=0;exitDx=0;exitDy=0;" parent="1" source="btoclys5r_zD7IFOaIW8-54" target="btoclys5r_zD7IFOaIW8-60" edge="1">
          <mxGeometry width="50" height="50" relative="1" as="geometry">
            <mxPoint x="620" y="710" as="sourcePoint" />
            <mxPoint x="670" y="660" as="targetPoint" />
          </mxGeometry>
        </mxCell>
        <mxCell id="btoclys5r_zD7IFOaIW8-62" value="" style="endArrow=none;html=1;rounded=0;entryX=0;entryY=0.5;entryDx=0;entryDy=0;exitX=1;exitY=0.5;exitDx=0;exitDy=0;" parent="1" source="btoclys5r_zD7IFOaIW8-54" target="btoclys5r_zD7IFOaIW8-58" edge="1">
          <mxGeometry width="50" height="50" relative="1" as="geometry">
            <mxPoint x="620" y="710" as="sourcePoint" />
            <mxPoint x="670" y="660" as="targetPoint" />
          </mxGeometry>
        </mxCell>
        <mxCell id="btoclys5r_zD7IFOaIW8-63" value="" style="endArrow=none;html=1;rounded=0;entryX=0;entryY=0;entryDx=0;entryDy=0;exitX=1;exitY=1;exitDx=0;exitDy=0;" parent="1" source="btoclys5r_zD7IFOaIW8-54" target="btoclys5r_zD7IFOaIW8-56" edge="1">
          <mxGeometry width="50" height="50" relative="1" as="geometry">
            <mxPoint x="620" y="710" as="sourcePoint" />
            <mxPoint x="670" y="660" as="targetPoint" />
          </mxGeometry>
        </mxCell>
        <mxCell id="btoclys5r_zD7IFOaIW8-64" value="" style="endArrow=none;html=1;rounded=0;entryX=0.5;entryY=0;entryDx=0;entryDy=0;exitX=0.75;exitY=1;exitDx=0;exitDy=0;" parent="1" source="btoclys5r_zD7IFOaIW8-54" target="btoclys5r_zD7IFOaIW8-57" edge="1">
          <mxGeometry width="50" height="50" relative="1" as="geometry">
            <mxPoint x="620" y="710" as="sourcePoint" />
            <mxPoint x="670" y="660" as="targetPoint" />
          </mxGeometry>
        </mxCell>
        <mxCell id="btoclys5r_zD7IFOaIW8-65" value="" style="endArrow=none;html=1;rounded=0;entryX=0.25;entryY=1;entryDx=0;entryDy=0;exitX=0.5;exitY=0;exitDx=0;exitDy=0;" parent="1" source="btoclys5r_zD7IFOaIW8-59" target="btoclys5r_zD7IFOaIW8-54" edge="1">
          <mxGeometry width="50" height="50" relative="1" as="geometry">
            <mxPoint x="620" y="710" as="sourcePoint" />
            <mxPoint x="670" y="660" as="targetPoint" />
          </mxGeometry>
        </mxCell>
        <mxCell id="btoclys5r_zD7IFOaIW8-66" value="&lt;div&gt;&lt;u&gt;address_&lt;/u&gt;&lt;/div&gt;&lt;div&gt;&lt;u&gt;id&lt;br&gt;&lt;/u&gt;&lt;/div&gt;" style="ellipse;whiteSpace=wrap;html=1;" parent="1" vertex="1">
          <mxGeometry x="650" y="310" width="60" height="60" as="geometry" />
        </mxCell>
        <mxCell id="btoclys5r_zD7IFOaIW8-67" value="city" style="ellipse;whiteSpace=wrap;html=1;" parent="1" vertex="1">
          <mxGeometry x="720" y="300" width="60" height="60" as="geometry" />
        </mxCell>
        <mxCell id="btoclys5r_zD7IFOaIW8-68" value="state" style="ellipse;whiteSpace=wrap;html=1;" parent="1" vertex="1">
          <mxGeometry x="780" y="350" width="60" height="60" as="geometry" />
        </mxCell>
        <mxCell id="btoclys5r_zD7IFOaIW8-69" value="&lt;div&gt;postal_&lt;/div&gt;&lt;div&gt;code&lt;/div&gt;" style="ellipse;whiteSpace=wrap;html=1;" parent="1" vertex="1">
          <mxGeometry x="790" y="420" width="60" height="60" as="geometry" />
        </mxCell>
        <mxCell id="btoclys5r_zD7IFOaIW8-70" value="&lt;div&gt;address_&lt;/div&gt;&lt;div&gt;line1&lt;/div&gt;" style="ellipse;whiteSpace=wrap;html=1;" parent="1" vertex="1">
          <mxGeometry x="750" y="470" width="60" height="60" as="geometry" />
        </mxCell>
        <mxCell id="btoclys5r_zD7IFOaIW8-71" value="&lt;div&gt;address_&lt;/div&gt;&lt;div&gt;line2&lt;/div&gt;" style="ellipse;whiteSpace=wrap;html=1;" parent="1" vertex="1">
          <mxGeometry x="680" y="480" width="60" height="60" as="geometry" />
        </mxCell>
        <mxCell id="btoclys5r_zD7IFOaIW8-83" value="&lt;div&gt;&lt;u&gt;order_&lt;/u&gt;&lt;/div&gt;&lt;div&gt;&lt;u&gt;id&lt;/u&gt;&lt;/div&gt;" style="ellipse;whiteSpace=wrap;html=1;aspect=fixed;" parent="1" vertex="1">
          <mxGeometry x="215" y="500" width="60" height="60" as="geometry" />
        </mxCell>
        <mxCell id="btoclys5r_zD7IFOaIW8-84" value="&lt;div&gt;customer_&lt;/div&gt;&lt;div&gt;id&lt;/div&gt;" style="ellipse;whiteSpace=wrap;html=1;aspect=fixed;" parent="1" vertex="1">
          <mxGeometry x="275" y="430" width="60" height="60" as="geometry" />
        </mxCell>
        <mxCell id="btoclys5r_zD7IFOaIW8-85" value="address_id" style="ellipse;whiteSpace=wrap;html=1;aspect=fixed;" parent="1" vertex="1">
          <mxGeometry x="325" y="630" width="60" height="60" as="geometry" />
        </mxCell>
        <mxCell id="btoclys5r_zD7IFOaIW8-86" value="&lt;div&gt;order_&lt;/div&gt;&lt;div&gt;date&lt;/div&gt;" style="ellipse;whiteSpace=wrap;html=1;" parent="1" vertex="1">
          <mxGeometry x="215" y="600" width="60" height="60" as="geometry" />
        </mxCell>
        <mxCell id="btoclys5r_zD7IFOaIW8-89" value="" style="endArrow=none;html=1;rounded=0;entryX=0.5;entryY=1;entryDx=0;entryDy=0;exitX=0.5;exitY=0;exitDx=0;exitDy=0;" parent="1" source="g1c9487VDWxCcL2_BqUs-18" target="btoclys5r_zD7IFOaIW8-3" edge="1">
          <mxGeometry width="50" height="50" relative="1" as="geometry">
            <mxPoint x="380" y="400" as="sourcePoint" />
            <mxPoint x="435" y="340" as="targetPoint" />
          </mxGeometry>
        </mxCell>
        <mxCell id="btoclys5r_zD7IFOaIW8-90" value="" style="endArrow=none;html=1;rounded=0;exitX=0.5;exitY=0;exitDx=0;exitDy=0;entryX=0.5;entryY=1;entryDx=0;entryDy=0;" parent="1" source="btoclys5r_zD7IFOaIW8-52" target="g1c9487VDWxCcL2_BqUs-18" edge="1">
          <mxGeometry width="50" height="50" relative="1" as="geometry">
            <mxPoint x="390" y="440" as="sourcePoint" />
            <mxPoint x="470" y="450" as="targetPoint" />
          </mxGeometry>
        </mxCell>
        <mxCell id="btoclys5r_zD7IFOaIW8-91" value="1" style="text;html=1;align=center;verticalAlign=middle;whiteSpace=wrap;rounded=0;" parent="1" vertex="1">
          <mxGeometry x="445" y="340" width="20" height="20" as="geometry" />
        </mxCell>
        <mxCell id="btoclys5r_zD7IFOaIW8-93" value="N" style="text;html=1;align=center;verticalAlign=middle;whiteSpace=wrap;rounded=0;" parent="1" vertex="1">
          <mxGeometry x="405" y="490" width="20" height="20" as="geometry" />
        </mxCell>
        <mxCell id="btoclys5r_zD7IFOaIW8-95" value="has" style="rhombus;whiteSpace=wrap;html=1;rotation=45;" parent="1" vertex="1">
          <mxGeometry x="545" y="475" width="50" height="50" as="geometry" />
        </mxCell>
        <mxCell id="btoclys5r_zD7IFOaIW8-96" value="" style="endArrow=none;html=1;rounded=0;entryX=0.5;entryY=1;entryDx=0;entryDy=0;exitX=1;exitY=0.5;exitDx=0;exitDy=0;" parent="1" source="btoclys5r_zD7IFOaIW8-52" target="btoclys5r_zD7IFOaIW8-95" edge="1">
          <mxGeometry width="50" height="50" relative="1" as="geometry">
            <mxPoint x="390" y="530" as="sourcePoint" />
            <mxPoint x="440" y="480" as="targetPoint" />
          </mxGeometry>
        </mxCell>
        <mxCell id="btoclys5r_zD7IFOaIW8-97" value="" style="endArrow=none;html=1;rounded=0;entryX=0;entryY=1;entryDx=0;entryDy=0;exitX=0.5;exitY=0;exitDx=0;exitDy=0;" parent="1" source="btoclys5r_zD7IFOaIW8-95" target="btoclys5r_zD7IFOaIW8-53" edge="1">
          <mxGeometry width="50" height="50" relative="1" as="geometry">
            <mxPoint x="390" y="530" as="sourcePoint" />
            <mxPoint x="440" y="480" as="targetPoint" />
          </mxGeometry>
        </mxCell>
        <mxCell id="btoclys5r_zD7IFOaIW8-98" value="1" style="text;html=1;align=center;verticalAlign=middle;whiteSpace=wrap;rounded=0;" parent="1" vertex="1">
          <mxGeometry x="625" y="460" width="20" height="20" as="geometry" />
        </mxCell>
        <mxCell id="btoclys5r_zD7IFOaIW8-99" value="N" style="text;html=1;align=center;verticalAlign=middle;whiteSpace=wrap;rounded=0;" parent="1" vertex="1">
          <mxGeometry x="485" y="510" width="20" height="20" as="geometry" />
        </mxCell>
        <mxCell id="btoclys5r_zD7IFOaIW8-100" value="" style="endArrow=none;html=1;rounded=0;entryX=1;entryY=0.5;entryDx=0;entryDy=0;exitX=0;exitY=0.5;exitDx=0;exitDy=0;" parent="1" source="btoclys5r_zD7IFOaIW8-52" target="btoclys5r_zD7IFOaIW8-83" edge="1">
          <mxGeometry width="50" height="50" relative="1" as="geometry">
            <mxPoint x="390" y="650" as="sourcePoint" />
            <mxPoint x="440" y="600" as="targetPoint" />
          </mxGeometry>
        </mxCell>
        <mxCell id="btoclys5r_zD7IFOaIW8-101" value="" style="endArrow=none;html=1;rounded=0;entryX=1;entryY=0;entryDx=0;entryDy=0;exitX=0.5;exitY=1;exitDx=0;exitDy=0;" parent="1" source="btoclys5r_zD7IFOaIW8-52" target="btoclys5r_zD7IFOaIW8-85" edge="1">
          <mxGeometry width="50" height="50" relative="1" as="geometry">
            <mxPoint x="380" y="610" as="sourcePoint" />
            <mxPoint x="440" y="600" as="targetPoint" />
          </mxGeometry>
        </mxCell>
        <mxCell id="btoclys5r_zD7IFOaIW8-103" value="" style="endArrow=none;html=1;rounded=0;entryX=1;entryY=0.5;entryDx=0;entryDy=0;exitX=0;exitY=0;exitDx=0;exitDy=0;" parent="1" source="btoclys5r_zD7IFOaIW8-52" target="btoclys5r_zD7IFOaIW8-84" edge="1">
          <mxGeometry width="50" height="50" relative="1" as="geometry">
            <mxPoint x="375" y="550" as="sourcePoint" />
            <mxPoint x="315" y="550" as="targetPoint" />
          </mxGeometry>
        </mxCell>
        <mxCell id="btoclys5r_zD7IFOaIW8-104" value="" style="endArrow=none;html=1;rounded=0;entryX=1;entryY=0;entryDx=0;entryDy=0;exitX=0;exitY=1;exitDx=0;exitDy=0;" parent="1" source="btoclys5r_zD7IFOaIW8-52" target="btoclys5r_zD7IFOaIW8-86" edge="1">
          <mxGeometry width="50" height="50" relative="1" as="geometry">
            <mxPoint x="375" y="520" as="sourcePoint" />
            <mxPoint x="345" y="470" as="targetPoint" />
          </mxGeometry>
        </mxCell>
        <mxCell id="btoclys5r_zD7IFOaIW8-106" value="has" style="rhombus;whiteSpace=wrap;html=1;rotation=-30;" parent="1" vertex="1">
          <mxGeometry x="512.83" y="631.92" width="55" height="50" as="geometry" />
        </mxCell>
        <mxCell id="btoclys5r_zD7IFOaIW8-109" value="" style="endArrow=none;html=1;rounded=0;entryX=1;entryY=1;entryDx=0;entryDy=0;exitX=0.5;exitY=0;exitDx=0;exitDy=0;" parent="1" source="btoclys5r_zD7IFOaIW8-106" target="btoclys5r_zD7IFOaIW8-52" edge="1">
          <mxGeometry width="50" height="50" relative="1" as="geometry">
            <mxPoint x="460" y="670" as="sourcePoint" />
            <mxPoint x="510" y="620" as="targetPoint" />
          </mxGeometry>
        </mxCell>
        <mxCell id="btoclys5r_zD7IFOaIW8-110" value="N" style="text;html=1;align=center;verticalAlign=middle;whiteSpace=wrap;rounded=0;" parent="1" vertex="1">
          <mxGeometry x="465" y="570" width="20" height="20" as="geometry" />
        </mxCell>
        <mxCell id="btoclys5r_zD7IFOaIW8-112" value="" style="endArrow=none;html=1;rounded=0;entryX=0;entryY=0;entryDx=0;entryDy=0;exitX=0.5;exitY=1;exitDx=0;exitDy=0;" parent="1" source="btoclys5r_zD7IFOaIW8-106" target="btoclys5r_zD7IFOaIW8-54" edge="1">
          <mxGeometry width="50" height="50" relative="1" as="geometry">
            <mxPoint x="460" y="670" as="sourcePoint" />
            <mxPoint x="510" y="620" as="targetPoint" />
          </mxGeometry>
        </mxCell>
        <mxCell id="btoclys5r_zD7IFOaIW8-113" value="M" style="text;html=1;align=center;verticalAlign=middle;whiteSpace=wrap;rounded=0;" parent="1" vertex="1">
          <mxGeometry x="615" y="710" width="20" height="20" as="geometry" />
        </mxCell>
        <mxCell id="g1c9487VDWxCcL2_BqUs-2" value="username" style="ellipse;whiteSpace=wrap;html=1;aspect=fixed;" parent="1" vertex="1">
          <mxGeometry x="260" y="100" width="60" height="60" as="geometry" />
        </mxCell>
        <mxCell id="g1c9487VDWxCcL2_BqUs-3" value="password" style="ellipse;whiteSpace=wrap;html=1;aspect=fixed;" parent="1" vertex="1">
          <mxGeometry x="50" y="170" width="60" height="60" as="geometry" />
        </mxCell>
        <mxCell id="g1c9487VDWxCcL2_BqUs-4" value="email" style="ellipse;whiteSpace=wrap;html=1;aspect=fixed;" parent="1" vertex="1">
          <mxGeometry x="150" y="180" width="60" height="60" as="geometry" />
        </mxCell>
        <mxCell id="g1c9487VDWxCcL2_BqUs-5" value="&lt;div&gt;first_&lt;/div&gt;&lt;div&gt;name&lt;/div&gt;" style="ellipse;whiteSpace=wrap;html=1;aspect=fixed;" parent="1" vertex="1">
          <mxGeometry x="250" y="20" width="60" height="60" as="geometry" />
        </mxCell>
        <mxCell id="g1c9487VDWxCcL2_BqUs-6" value="" style="endArrow=none;html=1;rounded=0;entryX=0;entryY=1;entryDx=0;entryDy=0;exitX=1;exitY=0;exitDx=0;exitDy=0;" parent="1" source="btoclys5r_zD7IFOaIW8-2" target="g1c9487VDWxCcL2_BqUs-5" edge="1">
          <mxGeometry width="50" height="50" relative="1" as="geometry">
            <mxPoint x="400" y="330" as="sourcePoint" />
            <mxPoint x="450" y="280" as="targetPoint" />
          </mxGeometry>
        </mxCell>
        <mxCell id="g1c9487VDWxCcL2_BqUs-7" value="" style="endArrow=none;html=1;rounded=0;entryX=0;entryY=0.5;entryDx=0;entryDy=0;exitX=1;exitY=0.5;exitDx=0;exitDy=0;" parent="1" source="btoclys5r_zD7IFOaIW8-2" target="g1c9487VDWxCcL2_BqUs-2" edge="1">
          <mxGeometry width="50" height="50" relative="1" as="geometry">
            <mxPoint x="250" y="110" as="sourcePoint" />
            <mxPoint x="269" y="81" as="targetPoint" />
          </mxGeometry>
        </mxCell>
        <mxCell id="g1c9487VDWxCcL2_BqUs-8" value="" style="endArrow=none;html=1;rounded=0;entryX=0.5;entryY=0;entryDx=0;entryDy=0;exitX=0.5;exitY=1;exitDx=0;exitDy=0;" parent="1" source="btoclys5r_zD7IFOaIW8-2" target="g1c9487VDWxCcL2_BqUs-4" edge="1">
          <mxGeometry width="50" height="50" relative="1" as="geometry">
            <mxPoint x="250" y="140" as="sourcePoint" />
            <mxPoint x="270" y="140" as="targetPoint" />
          </mxGeometry>
        </mxCell>
        <mxCell id="g1c9487VDWxCcL2_BqUs-9" value="" style="endArrow=none;html=1;rounded=0;entryX=1;entryY=0;entryDx=0;entryDy=0;exitX=0;exitY=1;exitDx=0;exitDy=0;" parent="1" source="btoclys5r_zD7IFOaIW8-2" target="g1c9487VDWxCcL2_BqUs-3" edge="1">
          <mxGeometry width="50" height="50" relative="1" as="geometry">
            <mxPoint x="190" y="170" as="sourcePoint" />
            <mxPoint x="190" y="190" as="targetPoint" />
          </mxGeometry>
        </mxCell>
        <mxCell id="g1c9487VDWxCcL2_BqUs-10" value="&lt;div&gt;last_&lt;/div&gt;&lt;div&gt;name&lt;br&gt;&lt;/div&gt;" style="ellipse;whiteSpace=wrap;html=1;aspect=fixed;" parent="1" vertex="1">
          <mxGeometry x="380" y="190" width="60" height="60" as="geometry" />
        </mxCell>
        <mxCell id="g1c9487VDWxCcL2_BqUs-11" value="username" style="ellipse;whiteSpace=wrap;html=1;aspect=fixed;" parent="1" vertex="1">
          <mxGeometry x="305" y="220" width="60" height="60" as="geometry" />
        </mxCell>
        <mxCell id="g1c9487VDWxCcL2_BqUs-12" value="password" style="ellipse;whiteSpace=wrap;html=1;aspect=fixed;" parent="1" vertex="1">
          <mxGeometry x="512.83" y="220" width="60" height="60" as="geometry" />
        </mxCell>
        <mxCell id="g1c9487VDWxCcL2_BqUs-13" value="email" style="ellipse;whiteSpace=wrap;html=1;aspect=fixed;" parent="1" vertex="1">
          <mxGeometry x="530" y="290" width="60" height="60" as="geometry" />
        </mxCell>
        <mxCell id="g1c9487VDWxCcL2_BqUs-15" value="&lt;div&gt;last_&lt;/div&gt;&lt;div&gt;name&lt;/div&gt;" style="ellipse;whiteSpace=wrap;html=1;aspect=fixed;" parent="1" vertex="1">
          <mxGeometry x="230" y="170" width="60" height="60" as="geometry" />
        </mxCell>
        <mxCell id="g1c9487VDWxCcL2_BqUs-16" value="&lt;div&gt;first_&lt;/div&gt;&lt;div&gt;name&lt;/div&gt;" style="ellipse;whiteSpace=wrap;html=1;aspect=fixed;" parent="1" vertex="1">
          <mxGeometry x="280" y="310" width="60" height="60" as="geometry" />
        </mxCell>
        <mxCell id="g1c9487VDWxCcL2_BqUs-17" value="&lt;div&gt;loyalty_&lt;/div&gt;&lt;div&gt;points&lt;br&gt;&lt;/div&gt;" style="ellipse;whiteSpace=wrap;html=1;aspect=fixed;" parent="1" vertex="1">
          <mxGeometry x="485" y="350" width="60" height="60" as="geometry" />
        </mxCell>
        <mxCell id="g1c9487VDWxCcL2_BqUs-18" value="has" style="rhombus;whiteSpace=wrap;html=1;" parent="1" vertex="1">
          <mxGeometry x="403" y="400" width="45" height="45" as="geometry" />
        </mxCell>
        <mxCell id="g1c9487VDWxCcL2_BqUs-19" value="" style="endArrow=none;html=1;rounded=0;entryX=0;entryY=0.5;entryDx=0;entryDy=0;exitX=1;exitY=0.5;exitDx=0;exitDy=0;" parent="1" source="btoclys5r_zD7IFOaIW8-3" target="g1c9487VDWxCcL2_BqUs-13" edge="1">
          <mxGeometry width="50" height="50" relative="1" as="geometry">
            <mxPoint x="460" y="340" as="sourcePoint" />
            <mxPoint x="510" y="290" as="targetPoint" />
          </mxGeometry>
        </mxCell>
        <mxCell id="g1c9487VDWxCcL2_BqUs-20" value="" style="endArrow=none;html=1;rounded=0;entryX=0;entryY=0;entryDx=0;entryDy=0;exitX=0.75;exitY=1;exitDx=0;exitDy=0;" parent="1" source="btoclys5r_zD7IFOaIW8-3" target="g1c9487VDWxCcL2_BqUs-17" edge="1">
          <mxGeometry width="50" height="50" relative="1" as="geometry">
            <mxPoint x="513" y="320" as="sourcePoint" />
            <mxPoint x="530" y="330" as="targetPoint" />
          </mxGeometry>
        </mxCell>
        <mxCell id="g1c9487VDWxCcL2_BqUs-23" value="" style="endArrow=none;html=1;rounded=0;entryX=0;entryY=1;entryDx=0;entryDy=0;exitX=1;exitY=0;exitDx=0;exitDy=0;" parent="1" source="btoclys5r_zD7IFOaIW8-3" target="g1c9487VDWxCcL2_BqUs-12" edge="1">
          <mxGeometry width="50" height="50" relative="1" as="geometry">
            <mxPoint x="460" y="340" as="sourcePoint" />
            <mxPoint x="510" y="290" as="targetPoint" />
          </mxGeometry>
        </mxCell>
        <mxCell id="g1c9487VDWxCcL2_BqUs-24" value="" style="endArrow=none;html=1;rounded=0;exitX=1;exitY=0;exitDx=0;exitDy=0;entryX=0;entryY=0.5;entryDx=0;entryDy=0;" parent="1" source="g1c9487VDWxCcL2_BqUs-16" target="btoclys5r_zD7IFOaIW8-3" edge="1">
          <mxGeometry width="50" height="50" relative="1" as="geometry">
            <mxPoint x="460" y="340" as="sourcePoint" />
            <mxPoint x="510" y="290" as="targetPoint" />
          </mxGeometry>
        </mxCell>
        <mxCell id="g1c9487VDWxCcL2_BqUs-25" value="" style="endArrow=none;html=1;rounded=0;exitX=1;exitY=1;exitDx=0;exitDy=0;entryX=0;entryY=0;entryDx=0;entryDy=0;" parent="1" source="g1c9487VDWxCcL2_BqUs-11" target="btoclys5r_zD7IFOaIW8-3" edge="1">
          <mxGeometry width="50" height="50" relative="1" as="geometry">
            <mxPoint x="341" y="329" as="sourcePoint" />
            <mxPoint x="393" y="320" as="targetPoint" />
          </mxGeometry>
        </mxCell>
        <mxCell id="g1c9487VDWxCcL2_BqUs-26" value="" style="endArrow=none;html=1;rounded=0;entryX=0.5;entryY=1;entryDx=0;entryDy=0;exitX=0.25;exitY=0;exitDx=0;exitDy=0;" parent="1" source="btoclys5r_zD7IFOaIW8-3" target="g1c9487VDWxCcL2_BqUs-10" edge="1">
          <mxGeometry width="50" height="50" relative="1" as="geometry">
            <mxPoint x="460" y="340" as="sourcePoint" />
            <mxPoint x="510" y="290" as="targetPoint" />
          </mxGeometry>
        </mxCell>
        <mxCell id="g1c9487VDWxCcL2_BqUs-27" value="" style="endArrow=none;html=1;rounded=0;entryX=0.5;entryY=1;entryDx=0;entryDy=0;exitX=0.75;exitY=0;exitDx=0;exitDy=0;" parent="1" source="btoclys5r_zD7IFOaIW8-3" target="btoclys5r_zD7IFOaIW8-17" edge="1">
          <mxGeometry width="50" height="50" relative="1" as="geometry">
            <mxPoint x="460" y="340" as="sourcePoint" />
            <mxPoint x="510" y="290" as="targetPoint" />
          </mxGeometry>
        </mxCell>
        <mxCell id="g1c9487VDWxCcL2_BqUs-28" value="" style="endArrow=none;html=1;rounded=0;entryX=0.5;entryY=1;entryDx=0;entryDy=0;exitX=0.5;exitY=0;exitDx=0;exitDy=0;" parent="1" source="btoclys5r_zD7IFOaIW8-53" target="btoclys5r_zD7IFOaIW8-66" edge="1">
          <mxGeometry width="50" height="50" relative="1" as="geometry">
            <mxPoint x="460" y="340" as="sourcePoint" />
            <mxPoint x="510" y="290" as="targetPoint" />
          </mxGeometry>
        </mxCell>
        <mxCell id="g1c9487VDWxCcL2_BqUs-30" value="" style="endArrow=none;html=1;rounded=0;exitX=0.75;exitY=0;exitDx=0;exitDy=0;entryX=0.5;entryY=1;entryDx=0;entryDy=0;" parent="1" source="btoclys5r_zD7IFOaIW8-53" target="btoclys5r_zD7IFOaIW8-67" edge="1">
          <mxGeometry width="50" height="50" relative="1" as="geometry">
            <mxPoint x="460" y="340" as="sourcePoint" />
            <mxPoint x="510" y="290" as="targetPoint" />
          </mxGeometry>
        </mxCell>
        <mxCell id="g1c9487VDWxCcL2_BqUs-31" value="" style="endArrow=none;html=1;rounded=0;exitX=1;exitY=0.25;exitDx=0;exitDy=0;entryX=0;entryY=0.5;entryDx=0;entryDy=0;" parent="1" source="btoclys5r_zD7IFOaIW8-53" target="btoclys5r_zD7IFOaIW8-68" edge="1">
          <mxGeometry width="50" height="50" relative="1" as="geometry">
            <mxPoint x="730" y="410" as="sourcePoint" />
            <mxPoint x="760" y="370" as="targetPoint" />
          </mxGeometry>
        </mxCell>
        <mxCell id="g1c9487VDWxCcL2_BqUs-32" value="" style="endArrow=none;html=1;rounded=0;exitX=1;exitY=0.75;exitDx=0;exitDy=0;entryX=0;entryY=0.5;entryDx=0;entryDy=0;" parent="1" source="btoclys5r_zD7IFOaIW8-53" target="btoclys5r_zD7IFOaIW8-69" edge="1">
          <mxGeometry width="50" height="50" relative="1" as="geometry">
            <mxPoint x="760" y="425" as="sourcePoint" />
            <mxPoint x="790" y="390" as="targetPoint" />
          </mxGeometry>
        </mxCell>
        <mxCell id="g1c9487VDWxCcL2_BqUs-33" value="" style="endArrow=none;html=1;rounded=0;exitX=1;exitY=1;exitDx=0;exitDy=0;entryX=0;entryY=0;entryDx=0;entryDy=0;" parent="1" source="btoclys5r_zD7IFOaIW8-53" target="btoclys5r_zD7IFOaIW8-70" edge="1">
          <mxGeometry width="50" height="50" relative="1" as="geometry">
            <mxPoint x="760" y="455" as="sourcePoint" />
            <mxPoint x="800" y="460" as="targetPoint" />
          </mxGeometry>
        </mxCell>
        <mxCell id="g1c9487VDWxCcL2_BqUs-34" value="" style="endArrow=none;html=1;rounded=0;exitX=0.5;exitY=1;exitDx=0;exitDy=0;entryX=0;entryY=0;entryDx=0;entryDy=0;" parent="1" source="btoclys5r_zD7IFOaIW8-53" target="btoclys5r_zD7IFOaIW8-71" edge="1">
          <mxGeometry width="50" height="50" relative="1" as="geometry">
            <mxPoint x="760" y="470" as="sourcePoint" />
            <mxPoint x="769" y="489" as="targetPoint" />
          </mxGeometry>
        </mxCell>
        <mxCell id="g1c9487VDWxCcL2_BqUs-35" value="" style="endArrow=none;html=1;rounded=0;entryX=1;entryY=1;entryDx=0;entryDy=0;exitX=0;exitY=0;exitDx=0;exitDy=0;" parent="1" source="g1c9487VDWxCcL2_BqUs-15" target="btoclys5r_zD7IFOaIW8-2" edge="1">
          <mxGeometry width="50" height="50" relative="1" as="geometry">
            <mxPoint x="460" y="350" as="sourcePoint" />
            <mxPoint x="510" y="300" as="targetPoint" />
          </mxGeometry>
        </mxCell>
        <mxCell id="VDR75WJ0QAb9MWiiNotI-2" value="quantity" style="ellipse;whiteSpace=wrap;html=1;" vertex="1" parent="1">
          <mxGeometry x="660" y="650" width="60" height="60" as="geometry" />
        </mxCell>
        <mxCell id="VDR75WJ0QAb9MWiiNotI-3" value="" style="endArrow=none;html=1;rounded=0;entryX=0.5;entryY=1;entryDx=0;entryDy=0;exitX=0.75;exitY=0;exitDx=0;exitDy=0;" edge="1" parent="1" source="btoclys5r_zD7IFOaIW8-54" target="VDR75WJ0QAb9MWiiNotI-2">
          <mxGeometry width="50" height="50" relative="1" as="geometry">
            <mxPoint x="460" y="810" as="sourcePoint" />
            <mxPoint x="510" y="760" as="targetPoint" />
          </mxGeometry>
        </mxCell>
      </root>
    </mxGraphModel>
  </diagram>
</mxfile>
